<svg width="36" height="23" viewBox="0 0 36 23" fill="none" xmlns="http://www.w3.org/2000/svg">
<g clip-path="url(#clip0_428_5316)">
<path d="M9.7486 20.1807C9.24986 20.1807 8.8418 20.5834 8.8418 21.1204C8.8418 21.6126 9.24986 22.0153 9.79394 22.0153C10.2927 22.0153 10.7007 21.6126 10.7007 21.0756C10.6554 20.5834 10.2473 20.1807 9.7486 20.1807Z" fill="#8FCEE8"/>
<path d="M5.35058 5.81705C5.84932 5.81705 6.25738 5.36958 6.25738 4.87736C6.25738 4.38515 5.80398 3.98242 5.30524 3.98242C4.8065 3.98242 4.39844 4.42989 4.39844 4.92211C4.44378 5.41433 4.85184 5.81705 5.35058 5.81705Z" fill="#8FCEE8"/>
<path d="M0.952141 9.97818C1.45088 9.97818 1.85894 9.57546 1.85894 9.0385C1.85894 8.54628 1.45088 8.14355 0.906801 8.14355C0.40806 8.14355 0 8.54628 0 9.08324C0 9.57546 0.40806 9.97818 0.952141 9.97818Z" fill="#1B87C5"/>
<path d="M3.26436 16.377C2.6296 16.377 2.13086 16.9139 2.13086 17.5404C2.13086 18.1668 2.67494 18.6591 3.3097 18.6591C3.94446 18.6591 4.4432 18.1221 4.4432 17.4956C4.39786 16.8692 3.89912 16.377 3.26436 16.377Z" fill="#1B87C5"/>
<path d="M8.25235 17.4961C8.25235 16.7801 7.66293 16.2432 6.93749 16.2432C6.21205 16.2432 5.66797 16.8249 5.66797 17.5408C5.66797 18.2568 6.25739 18.7937 6.98283 18.7937C7.70827 18.7937 8.29769 18.212 8.25235 17.4961Z" fill="#8FCEE8"/>
<path d="M5.53137 13.245C5.53137 12.6633 5.03263 12.2158 4.44321 12.2158C3.85379 12.2158 3.40039 12.708 3.40039 13.2898C3.40039 13.8715 3.85379 14.3189 4.44321 14.3189C5.03263 14.3189 5.53137 13.8267 5.53137 13.245Z" fill="#8FCEE8"/>
<path d="M13.2846 19.9567C12.6498 19.9567 12.1057 20.4937 12.1511 21.1201C12.1511 21.7466 12.6952 22.2836 13.3299 22.2388C13.9647 22.2388 14.5088 21.7018 14.4634 21.0754C14.4634 20.4489 13.9647 19.912 13.2846 19.9567Z" fill="#F8AD3C"/>
<path d="M11.0166 15.9297C10.1098 15.9297 9.42969 16.6456 9.42969 17.5406C9.42969 18.4355 10.1551 19.1067 11.0619 19.1067C11.9687 19.1067 12.6488 18.3908 12.6488 17.4958C12.6035 16.6456 11.8781 15.9297 11.0166 15.9297Z" fill="#F8AD3C"/>
<path d="M10.3821 13.1998C10.3821 12.3048 9.61131 11.5889 8.70451 11.5889C7.79771 11.5889 7.07227 12.3496 7.07227 13.2445C7.07227 14.1395 7.84305 14.8554 8.74985 14.8554C9.70199 14.8107 10.4274 14.0947 10.3821 13.1998Z" fill="#F8AD3C"/>
<path d="M9.52127 6.12963C10.2921 6.12963 10.8815 5.50317 10.8361 4.74247C10.8361 3.98177 10.2014 3.40005 9.43059 3.4448C8.65981 3.4448 8.07039 4.07126 8.11573 4.83196C8.11573 5.54791 8.75049 6.12963 9.52127 6.12963Z" fill="#F8AD3C"/>
<path d="M8.43302 10.4251C9.33982 10.4251 10.0199 9.70914 10.0199 8.81419C10.0199 7.964 9.29448 7.24805 8.38768 7.24805C7.48088 7.24805 6.80078 7.964 6.80078 8.85894C6.84612 9.70914 7.57156 10.4251 8.43302 10.4251Z" fill="#F8AD3C"/>
<path d="M4.07965 10.2464C4.75975 10.2464 5.30383 9.70946 5.30383 9.03825C5.30383 8.36704 4.75975 7.83008 4.07965 7.83008C3.39955 7.83008 2.85547 8.36704 2.85547 9.03825C2.85547 9.70946 3.44489 10.2464 4.07965 10.2464Z" fill="#8FCEE8"/>
<path d="M17.2285 19.7783C16.5484 19.7783 15.959 20.36 15.959 21.0312C15.959 21.7024 16.5484 22.2842 17.2285 22.2842C17.9086 22.2842 18.498 21.7024 18.498 21.0312C18.498 20.36 17.9086 19.7783 17.2285 19.7783Z" fill="white"/>
<path d="M15.0986 15.9297C14.1918 15.9297 13.5117 16.6456 13.5117 17.5406C13.5117 18.4355 14.2372 19.1067 15.144 19.1067C16.0508 19.1067 16.7309 18.3908 16.7309 17.4958C16.7309 16.6456 16.0054 15.9297 15.0986 15.9297Z" fill="white"/>
<path d="M14.7805 13.1998C14.7805 12.3048 14.0097 11.5889 13.1029 11.5889C12.1961 11.5889 11.4707 12.3496 11.4707 13.2445C11.4707 14.1395 12.2415 14.8554 13.1483 14.8554C14.0551 14.8107 14.7805 14.0947 14.7805 13.1998Z" fill="white"/>
<path d="M12.8315 10.4261C13.7383 10.4261 14.4184 9.71011 14.4184 8.81517C14.4184 7.96498 13.6929 7.24902 12.7861 7.24902C11.8793 7.24902 11.1992 7.96498 11.1992 8.85992C11.2446 9.71011 11.97 10.4261 12.8315 10.4261Z" fill="white"/>
<path d="M13.9195 6.26429C14.781 6.26429 15.5064 5.50359 15.4611 4.6534C15.4611 3.75845 14.6903 3.08725 13.8289 3.132C12.9221 3.132 12.242 3.8927 12.2873 4.74289C12.2873 5.59309 13.0127 6.26429 13.9195 6.26429Z" fill="white"/>
<path d="M20.8108 20.7179C16.4128 16.6907 13.103 1.29767 19.5413 0C8.88637 0.939689 15.5967 21.7471 21.2642 23C24.1206 22.4183 21.4002 15.3482 24.5287 15.6615C24.5287 15.6615 22.443 14.2743 20.8108 20.7179Z" fill="white"/>
<path d="M35.8177 5.68242C35.6817 2.81861 33.1426 -0.045206 30.2862 -0.000458918C23.7119 -0.000458918 23.0771 6.7116 18.9512 1.02872C22.2157 10.5599 29.334 -3.1775 33.4146 4.34001C34.9109 9.57542 32.3718 16.9139 28.9713 20.7622C27.2031 13.6027 23.9839 13.3789 21.8983 14.3186C23.7119 13.9159 26.4323 14.0949 27.2031 21.7466C30.8303 27.8322 37.2232 9.70966 35.8177 5.68242Z" fill="white"/>
<path d="M26.1152 4.29513C29.7878 2.10252 34.2311 3.35544 31.7827 12.1706C31.7827 9.48579 31.6921 2.99746 26.1152 4.29513Z" fill="#8FCEE8"/>
</g>
<defs>
<clipPath id="clip0_428_5316">
<rect width="36" height="23" fill="white"/>
</clipPath>
</defs>
</svg>
